<?xml version="1.0" standalone="no"?>
<!DOCTYPE svg PUBLIC "-//W3C//DTD SVG 20010904//EN"
 "http://www.w3.org/TR/2001/REC-SVG-20010904/DTD/svg10.dtd">
<svg version="1.0" xmlns="http://www.w3.org/2000/svg"
 width="640.000000pt" height="640.000000pt" viewBox="0 0 640.000000 640.000000"
 preserveAspectRatio="xMidYMid meet">

<g transform="translate(0.000000,640.000000) scale(0.100000,-0.100000)"
fill="#000000" stroke="none">
<path d="M1494 6368 c2 -116 -35 -274 -89 -378 -68 -132 -179 -259 -290 -334
-156 -104 -256 -138 -464 -155 -83 -7 -107 -12 -118 -27 -11 -15 -12 -159 -6
-844 3 -454 6 -836 6 -850 -1 -14 -2 -712 -4 -1552 -3 -1471 -2 -1528 16
-1548 23 -26 96 -28 116 -3 12 13 14 342 17 2037 1 1112 4 2154 5 2316 l2 295
40 12 c22 7 83 22 135 33 116 25 289 109 382 184 94 77 178 158 178 171 0 21
37 47 62 43 19 -2 23 -9 22 -33 -1 -16 -3 -55 -4 -85 -1 -30 -2 -406 -1 -835
1 -1565 1 -2285 -2 -2348 -3 -67 -14 -73 -271 -137 -203 -50 -206 -52 -205
-170 2 -489 -2 -1263 -7 -1349 l-7 -110 34 -20 c44 -27 74 -26 103 2 l23 23 2
715 c1 548 5 717 14 726 7 7 46 22 87 32 41 11 120 33 175 49 55 16 118 33
140 36 22 4 74 18 115 31 106 34 179 53 225 60 22 4 62 14 88 22 97 30 305 84
420 108 65 14 131 32 146 39 15 8 55 20 90 26 35 6 91 20 125 31 33 10 71 19
83 19 12 0 58 13 103 30 93 34 135 38 148 13 4 -10 5 -175 2 -368 -4 -192 -6
-627 -6 -966 1 -506 3 -619 15 -632 12 -15 51 -17 375 -17 198 0 422 5 496 10
262 21 475 43 500 52 36 15 190 48 219 48 15 0 51 13 82 30 31 16 77 34 103
40 58 13 318 151 366 195 19 17 54 43 77 58 24 15 43 31 43 36 0 5 14 18 30
28 30 19 166 195 225 290 56 90 72 131 140 369 8 28 15 64 15 80 0 16 9 61 20
99 28 101 28 335 -1 465 -34 160 -58 239 -90 303 -17 33 -37 78 -44 98 -11 32
-76 133 -149 233 -45 61 -184 200 -241 240 -81 58 -189 116 -213 116 -33 0
-52 11 -52 30 0 22 17 37 120 100 47 29 87 56 90 59 3 4 20 18 39 31 137 95
306 347 349 520 31 124 37 176 37 355 0 194 -16 353 -41 414 -8 18 -14 48 -14
66 0 99 -149 389 -278 542 -63 75 -223 203 -344 276 -94 57 -142 79 -263 123
-214 78 -262 92 -338 98 -42 3 -93 12 -112 20 -79 33 -217 37 -1406 36 -1113
0 -1177 0 -1198 17 -20 16 -22 31 -28 141 l-6 122 -77 0 -77 0 1 -32z m1129
-636 c34 -37 34 -113 1 -146 -13 -14 -57 -16 -324 -16 l-309 0 -16 30 c-21 41
-19 92 6 124 l20 26 303 0 c280 0 304 -1 319 -18z m912 -8 c32 -34 33 -91 4
-128 l-20 -26 -309 0 -309 0 -16 30 c-21 41 -19 92 6 124 l20 26 300 0 300 0
24 -26z m298 17 c48 -11 109 -22 412 -72 142 -24 165 -36 165 -90 0 -78 -44
-120 -107 -104 -29 7 -215 40 -318 55 -178 27 -241 42 -252 57 -27 35 -7 142
29 156 19 8 26 8 71 -2z m1050 -392 c174 -148 237 -207 237 -222 0 -57 -81
-128 -122 -106 -9 5 -81 64 -160 131 -79 68 -181 154 -226 192 -69 58 -82 74
-82 99 0 34 66 107 97 107 11 0 126 -90 256 -201z m-993 -194 c167 -7 325 -54
455 -137 60 -38 184 -163 203 -205 10 -21 25 -49 34 -63 9 -14 26 -61 38 -105
19 -68 22 -96 17 -182 -5 -90 -10 -109 -42 -173 -96 -191 -283 -294 -605 -335
-25 -3 -332 -6 -683 -6 -573 -1 -640 0 -656 15 -16 15 -17 43 -14 416 l3 399
-23 16 c-30 19 -51 12 -151 -49 -159 -96 -177 -105 -191 -100 -20 8 -17 476 3
496 10 10 154 14 695 18 375 3 709 4 742 3 33 -2 112 -5 175 -8z m1343 -308
c63 -27 62 -17 48 -345 -13 -296 -13 -297 -37 -319 -31 -28 -63 -29 -114 -3
l-40 20 0 68 c0 150 23 548 34 561 24 30 63 37 109 18z m-2778 -336 c3 -5 7
-419 9 -920 4 -1045 17 -930 -106 -961 -40 -10 -116 -30 -168 -44 -52 -15
-151 -40 -220 -56 -69 -16 -150 -37 -180 -46 -75 -22 -117 -28 -123 -17 -3 5
-7 366 -8 801 -1 710 0 794 14 816 9 13 58 45 109 71 51 26 100 53 108 60 8 7
47 29 85 50 147 77 303 167 350 201 32 23 92 52 112 53 6 1 14 -3 18 -8z
m2571 -507 c65 -68 64 -69 -203 -284 -145 -116 -246 -190 -260 -190 -27 0 -81
53 -89 87 -4 14 -3 33 3 42 5 9 112 98 237 199 163 131 234 182 253 182 16 0
38 -13 59 -36z m-1687 -440 c13 -16 21 -41 21 -64 0 -23 -8 -48 -21 -64 l-20
-26 -304 0 -304 0 -20 26 c-13 16 -21 41 -21 64 0 23 8 48 21 64 l20 26 304 0
304 0 20 -26z m910 0 c13 -16 21 -41 21 -64 0 -23 -8 -48 -21 -64 l-20 -26
-304 0 -304 0 -20 26 c-13 16 -21 41 -21 64 0 23 8 48 21 64 l20 26 304 0 304
0 20 -26z m774 -451 c8 -10 57 -92 108 -183 215 -384 195 -341 175 -373 -21
-31 -78 -59 -113 -55 -31 3 -40 18 -223 345 -119 214 -120 219 -60 261 39 26
91 29 113 5z m-1158 -108 c39 -3 95 -9 125 -12 79 -8 321 -88 388 -129 31 -19
62 -34 69 -34 7 0 27 -13 45 -28 18 -15 49 -38 68 -51 96 -66 216 -248 236
-361 16 -92 9 -200 -20 -285 -15 -44 -34 -90 -42 -103 -61 -94 -216 -205 -357
-257 -51 -18 -108 -40 -127 -48 -38 -17 -209 -43 -335 -51 -156 -11 -616 -9
-627 2 -8 8 -11 187 -12 593 l-1 582 -25 18 c-23 17 -29 18 -85 5 -33 -8 -74
-22 -90 -30 -17 -9 -48 -16 -70 -16 -22 -1 -92 -19 -155 -41 -136 -48 -170
-55 -199 -40 -20 11 -21 20 -21 129 0 84 4 124 14 137 12 17 40 19 522 22 280
3 510 6 512 8 3 3 62 0 187 -10z m1465 -700 c55 -28 55 -30 -24 -344 -42 -171
-78 -297 -87 -302 -26 -18 -109 -4 -136 24 l-26 25 31 124 c17 67 49 197 72
287 22 91 48 173 57 183 20 22 73 24 113 3z m-373 -797 c49 -54 58 -118 21
-142 -13 -8 -95 -44 -183 -81 -88 -37 -178 -75 -200 -85 -123 -55 -167 -69
-187 -59 -50 27 -75 121 -40 151 9 8 71 37 136 64 65 27 182 77 260 110 78 34
148 62 157 63 8 1 25 -9 36 -21z m-843 -280 c21 -30 20 -74 -2 -96 -16 -16
-48 -21 -203 -31 -101 -7 -238 -17 -304 -22 l-120 -10 -22 26 c-46 53 -20 112
54 122 52 6 432 30 515 32 59 1 69 -2 82 -21z"/>
<path d="M1805 3886 c-25 -25 -27 -33 -23 -83 6 -70 24 -87 87 -79 72 10 91
28 91 85 0 64 -21 89 -82 97 -41 6 -49 4 -73 -20z"/>
<path d="M2154 3885 c-21 -21 -24 -31 -18 -62 8 -43 22 -74 38 -85 6 -4 34 -8
63 -8 67 0 83 16 83 81 0 68 -30 99 -95 99 -36 0 -52 -6 -71 -25z"/>
<path d="M2171 3523 c-27 -22 -40 -98 -22 -130 14 -27 126 -42 148 -20 21 21
28 117 11 141 -22 28 -106 34 -137 9z"/>
<path d="M2170 3157 c-23 -12 -25 -17 -22 -78 2 -35 8 -70 14 -76 6 -7 32 -13
58 -13 80 0 121 62 88 134 -6 14 -18 28 -27 30 -50 13 -89 14 -111 3z"/>
<path d="M928 4781 c-97 -6 -126 -17 -115 -44 7 -19 70 -26 307 -32 172 -5
187 -4 217 15 36 22 36 47 -1 54 -39 8 -310 12 -408 7z"/>
<path d="M826 4364 c-26 -26 -19 -52 21 -73 14 -7 97 -11 250 -11 257 0 267 2
261 60 l-3 35 -257 3 c-223 2 -258 0 -272 -14z"/>
<path d="M839 3940 l-24 -20 24 -20 c22 -19 38 -20 261 -20 204 0 241 2 254
16 21 21 20 30 -6 48 -19 13 -61 16 -254 16 -217 0 -233 -1 -255 -20z"/>
<path d="M1123 3540 c-28 -11 -29 -31 -5 -54 16 -14 35 -15 123 -11 75 4 108
10 119 21 13 14 12 17 -9 35 -19 16 -38 19 -115 18 -50 0 -101 -4 -113 -9z"/>
<path d="M840 3123 c-29 -20 -25 -51 8 -64 15 -6 70 -10 122 -8 52 1 152 1
222 -1 157 -2 193 13 155 64 -12 16 -37 18 -250 20 -190 2 -241 0 -257 -11z"/>
<path d="M844 2707 c-20 -11 -17 -45 5 -57 25 -13 441 -13 476 0 29 11 43 36
28 51 -12 12 -488 18 -509 6z"/>
<path d="M1464 1900 c-12 -4 -24 -16 -28 -26 -4 -10 -7 -205 -7 -433 l0 -416
28 -24 c24 -21 33 -23 92 -17 37 3 335 6 664 6 405 -1 603 3 617 10 23 13 26
43 5 63 -12 12 -108 15 -646 15 -505 1 -634 4 -641 14 -4 7 -7 78 -5 158 l2
145 639 2 c586 2 640 3 657 19 11 9 19 25 19 34 0 19 -45 42 -82 42 -13 0
-293 -1 -622 -1 -472 -1 -601 1 -608 11 -13 21 -10 292 4 306 9 9 164 12 635
12 451 0 629 3 648 12 30 14 33 43 5 58 -15 8 -214 11 -663 9 -353 -1 -653 1
-667 4 -14 4 -34 2 -46 -3z"/>
</g>
</svg>
